<?xml version="1.0" encoding="UTF-8" standalone="no"?>
<!DOCTYPE svg PUBLIC "-//W3C//DTD SVG 1.1//EN" "http://www.w3.org/Graphics/SVG/1.1/DTD/svg11.dtd">
<svg width="100%" height="100%" viewBox="0 0 72 72" version="1.1" xmlns="http://www.w3.org/2000/svg" xmlns:xlink="http://www.w3.org/1999/xlink" xml:space="preserve" xmlns:serif="http://www.serif.com/" style="fill-rule:evenodd;clip-rule:evenodd;stroke-linejoin:round;stroke-miterlimit:2;">
    <g transform="matrix(1,0,0,1,-120,-13)">
        <path d="M156,85C136.118,85 120,68.882 120,49C120,29.118 136.118,13 156,13C175.882,13 192,29.118 192,49C192,68.882 175.882,85 156,85ZM174.222,45.001L153.778,45.001C152.796,45.001 152,45.797 152,46.778L151.998,51.223C151.998,52.205 152.793,53.001 153.775,53.001L166.222,53C167.204,53 168,53.796 168,54.778L168,55.222L168,55.667C168,58.612 165.612,61 162.667,61L145.777,61C144.795,61 143.999,60.204 143.999,59.223L143.998,42.334C143.998,39.389 146.386,37.001 149.332,37.001L174.217,37C175.199,37 175.994,36.205 175.995,35.223L176,30.779C176.001,29.797 175.205,29.001 174.223,29C174.223,29 174.223,29 174.222,29L149.333,29.001C141.97,29.001 136,34.971 136,42.334L136,67.222C136,68.204 136.796,69 137.778,69L164,69C170.628,69 176,63.628 176,57L176,46.778C176,45.797 175.204,45.001 174.222,45.001Z" style="fill:rgb(199,29,35);"/>
    </g>
</svg>
