<?xml version="1.0" standalone="no"?>
<!DOCTYPE svg PUBLIC "-//W3C//DTD SVG 20010904//EN"
 "http://www.w3.org/TR/2001/REC-SVG-20010904/DTD/svg10.dtd">
<svg version="1.0" xmlns="http://www.w3.org/2000/svg"
 width="700.000000pt" height="700.000000pt" viewBox="0 0 700.000000 700.000000"
 preserveAspectRatio="xMidYMid meet">
<metadata>
Created by potrace 1.14, written by Peter Selinger 2001-2017
</metadata>
<g transform="translate(0.000000,700.000000) scale(0.100000,-0.100000)"
fill="#000000" stroke="none">
<path d="M1527 6346 c-198 -74 -252 -335 -98 -479 l49 -46 -394 -1213 c-217
-667 -437 -1344 -489 -1504 l-95 -291 -52 -7 c-225 -30 -338 -267 -216 -451
124 -186 407 -164 504 40 26 54 33 160 15 208 -9 24 39 60 1365 1023 756 550
1379 999 1384 999 6 0 250 -175 544 -388 l534 -388 -94 -287 c-51 -158 -288
-887 -526 -1619 l-433 -1333 -31 0 c-106 0 -226 -85 -264 -188 -73 -193 64
-392 270 -392 113 0 200 52 255 151 27 48 30 63 29 134 -1 44 -3 89 -5 100 -3
15 230 189 1274 948 l1277 928 64 -31 c248 -122 507 124 397 375 -40 91 -117
148 -226 168 l-67 13 -488 1501 -488 1501 53 55 c66 67 90 132 83 221 -9 104
-67 192 -161 243 -24 14 -55 18 -127 18 -85 0 -100 -3 -141 -27 -58 -34 -100
-82 -125 -141 l-19 -47 -1585 0 -1585 0 -18 43 c-24 59 -70 112 -124 144 -38
22 -61 27 -127 30 -52 2 -94 -2 -119 -11z m3564 -357 c9 -18 8 -25 -7 -39 -43
-41 -1570 -1144 -1584 -1144 -14 0 -1540 1103 -1584 1144 -15 14 -16 21 -7 39
l12 21 1579 0 1579 0 12 -21z m-2487 -705 c750 -545 777 -567 760 -584 -11
-10 -621 -455 -1358 -989 -796 -578 -1344 -970 -1352 -967 -8 3 -17 12 -20 20
-3 8 214 689 482 1514 l487 1500 56 6 c33 4 76 18 106 35 28 16 52 29 55 30 3
0 355 -254 784 -565z m2598 552 c15 -11 -8 -88 -278 -922 -163 -500 -299 -913
-304 -917 -7 -7 -930 653 -984 703 -17 17 12 40 760 584 429 311 781 566 784
566 3 -1 13 -6 22 -14z m682 -1561 c410 -1260 487 -1507 476 -1520 -7 -8 -16
-15 -21 -15 -12 0 -1593 1150 -1598 1162 -2 6 133 431 300 944 297 916 304
934 329 934 25 0 33 -25 514 -1505z m-405 -1080 l778 -566 -14 -52 c-12 -47
-9 -101 9 -164 2 -9 -2547 -1873 -2562 -1872 -3 0 -13 6 -22 13 -16 12 21 132
497 1596 566 1743 522 1610 530 1610 3 0 356 -254 784 -565z"/>
</g>
</svg>
