<?xml version="1.0" encoding="UTF-8" standalone="no"?><!DOCTYPE svg PUBLIC "-//W3C//DTD SVG 1.1//EN" "http://www.w3.org/Graphics/SVG/1.1/DTD/svg11.dtd"><svg width="100%" height="100%" viewBox="0 0 4400 4400" version="1.1" xmlns="http://www.w3.org/2000/svg" xmlns:xlink="http://www.w3.org/1999/xlink" xml:space="preserve" xmlns:serif="http://www.serif.com/" style="fill-rule:evenodd;clip-rule:evenodd;stroke-linecap:round;stroke-linejoin:round;stroke-miterlimit:1.5;"><circle cx="2199.74" cy="2199.74" r="2197.66" style="fill:#fff;stroke:#fff;stroke-width:4.17px;"/><path d="M297.63,2818.6l726.542,-2236.07l2351.14,-0l726.543,2236.07l-1902.11,1381.97" style="fill:none;stroke:#000;stroke-width:83.33px;"/><path d="M1024.17,582.535l3077.68,2236.07" style="fill:none;stroke:#000;stroke-width:83.33px;"/><path d="M2199.74,4200.57l1175.57,-3618.03" style="fill:none;stroke:#000;stroke-width:83.33px;"/><path d="M297.63,2818.6l3077.68,-2236.07" style="fill:none;stroke:#000;stroke-width:83.33px;"/><path d="M170.822,2859.8c-22.74,-69.987 15.619,-145.27 85.606,-168.01c69.987,-22.74 145.269,15.618 168.009,85.605c22.741,69.987 -15.618,145.27 -85.605,168.01c-69.987,22.74 -145.269,-15.618 -168.01,-85.605Z" style="stroke:#000;stroke-width:100px;"/><path d="M897.365,623.737c-22.74,-69.987 15.618,-145.27 85.605,-168.01c69.987,-22.74 145.27,15.618 168.01,85.605c22.74,69.987 -15.618,145.27 -85.605,168.01c-69.987,22.74 -145.27,-15.618 -168.01,-85.605Z" style="stroke:#000;stroke-width:100px;"/><path d="M3248.51,623.737c-22.74,-69.987 15.618,-145.27 85.605,-168.01c69.987,-22.74 145.27,15.618 168.01,85.605c22.74,69.987 -15.618,145.27 -85.605,168.01c-69.987,22.74 -145.27,-15.618 -168.01,-85.605Z" style="stroke:#000;stroke-width:100px;"/><path d="M3975.05,2859.8c-22.74,-69.987 15.619,-145.27 85.606,-168.01c69.987,-22.74 145.269,15.618 168.01,85.605c22.74,69.987 -15.619,145.27 -85.606,168.01c-69.987,22.74 -145.269,-15.618 -168.01,-85.605Z" style="stroke:#000;stroke-width:100px;"/><path d="M2072.93,4241.77c-22.74,-69.987 15.619,-145.27 85.606,-168.01c69.987,-22.74 145.269,15.618 168.009,85.605c22.741,69.987 -15.618,145.27 -85.605,168.01c-69.987,22.74 -145.269,-15.618 -168.01,-85.605Z" style="stroke:#000;stroke-width:100px;"/></svg>